<?xml version="1.0" standalone="no"?>
<!DOCTYPE svg PUBLIC "-//W3C//DTD SVG 20010904//EN"
 "http://www.w3.org/TR/2001/REC-SVG-20010904/DTD/svg10.dtd">
<svg version="1.0" xmlns="http://www.w3.org/2000/svg"
 width="128.000000pt" height="149.000000pt" viewBox="0 0 128.000000 149.000000"
 preserveAspectRatio="xMidYMid meet">

<g transform="translate(0.000000,149.000000) scale(0.100000,-0.100000)"
fill="#000000" stroke="none">
<path d="M0 745 l0 -745 640 0 640 0 0 745 0 745 -640 0 -640 0 0 -745z m897
674 c43 -22 86 -50 97 -62 46 -54 -8 -258 -158 -607 -42 -96 -76 -179 -76
-183 0 -5 10 -17 22 -26 30 -25 18 -48 -29 -56 -39 -6 -39 -7 -96 -132 -32
-70 -55 -131 -52 -137 2 -6 10 -18 17 -27 16 -23 -14 -69 -44 -69 -31 0 -178
99 -178 119 0 22 29 62 43 60 31 -4 41 7 78 87 60 133 63 121 -43 184 -117 70
-132 93 -124 200 13 189 164 481 317 614 42 37 111 75 136 76 7 0 47 -18 90
-41z"/>
<path d="M778 1252 c-148 -153 -278 -425 -278 -582 0 -57 5 -63 35 -44 13 8
40 16 62 17 l38 3 58 134 c110 257 194 540 160 540 -5 0 -39 -30 -75 -68z"/>
</g>
</svg>
