<?xml version="1.0" standalone="no"?>
<!DOCTYPE svg PUBLIC "-//W3C//DTD SVG 20010904//EN"
 "http://www.w3.org/TR/2001/REC-SVG-20010904/DTD/svg10.dtd">
<svg version="1.0" xmlns="http://www.w3.org/2000/svg"
 width="128.000000pt" height="149.000000pt" viewBox="0 0 128.000000 149.000000"
 preserveAspectRatio="xMidYMid meet">

<g transform="translate(0.000000,149.000000) scale(0.100000,-0.100000)"
fill="#000000" stroke="none">
<path d="M755 1441 c-171 -80 -385 -437 -401 -671 -8 -107 7 -130 124 -200
106 -63 103 -51 43 -184 -37 -80 -47 -91 -78 -87 -14 2 -43 -38 -43 -60 0 -20
147 -119 178 -119 30 0 60 46 44 69 -7 9 -15 21 -17 27 -3 6 20 67 52 137 57
125 57 126 96 132 47 8 59 31 29 56 -12 9 -22 21 -22 26 0 4 34 87 76 183 150
349 204 553 158 607 -20 23 -166 103 -187 103 -7 0 -30 -9 -52 -19z m102 -176
c-7 -69 -88 -308 -164 -485 l-58 -134 -38 -3 c-22 -1 -49 -9 -62 -17 -30 -19
-35 -13 -35 44 0 107 73 300 170 450 44 66 166 200 183 200 6 0 8 -22 4 -55z"/>
</g>
</svg>
